Patient4_TMGait_0pt7_02_right_24_EMG.mot
version=1
nRows=29
nColumns=33
inDegrees=no
endheader
time	1LAddLong	2LGlutMax	3LGlutMed	4LIliopsoas	5LSemiMemb	6LBicFemLong	7LRecFem	8LVastMed	9LVastLat	10LGasMed	11LTibAnt	12lTibPost	13LPeroneusLong	14LSol	15LExtDigLong	16LFlexDigLong	17RAddLong	18RGlutMax	19RGlutMed	20RIliopsoas	21RSemiMemb	22RBicFemLong	23RRecFem	24RVastMed	25RVastLat	26RGasMed	27RTibAnt	28RTibPost	29RPeroneusLong	30RSol	31RExtDigLong	32RFlexDigLong
27.938	0.029449	-0.10666	0.000305	0.007019	0.13153	0.033569	0.047302	0.033264	-0.18021	-0.22079	0.005646	-0.036621	-0.00885	0.022125	-0.003967	-0.053864	0.069733	-0.10956	-0.098724	-0.007629	-0.12604	-0.04776	0.048523	-0.022888	0.008698	0.11383	0.042725	-0.008392	0.13031	0.035706	0.001831	-0.005493
27.939	0.025787	-0.11337	-0.032196	-0.000153	0.067902	0.083008	0.091095	0.034943	-0.054626	-0.14862	-0.011292	-0.17075	0.03418	-0.048218	0.032043	0.3688	0.06546	-0.16983	-0.27298	0.000916	-0.27466	0.042572	0.024872	0.006866	0.015717	0.14725	0.022736	-0.009613	0.06546	-0.008087	-0.000458	0.006714
27.94	0.029144	-0.12009	-0.056	0.009613	0.00946	0.077667	0.21042	0.018311	-0.014648	-0.25085	-0.016022	0.045624	0.10986	0.18509	0.052795	-0.16037	0.046997	-0.15518	-0.8786	0.016327	-0.15945	0.10696	0.032501	0.010223	0.010376	0.17838	0.079346	-0.005493	0.003815	-0.006256	-0.002441	-0.000458
27.941	0.024567	-0.11444	-0.18677	0.026093	0.008087	0.016174	0.36758	-0.016327	0.11917	-0.23804	-0.007935	0.29587	0.16235	0.17716	0.052948	-0.24338	0.022736	-0.079803	-1.2891	0.049133	0.22873	0.08194	0.018311	0.009155	0.011749	0.18204	0.11353	-0.006104	0.15884	-0.020447	-0.003662	-0.005035
27.942	0.020905	-0.084076	-0.10498	0.011444	-0.005493	0.028381	0.58273	-0.029144	0.31509	-0.079956	0.003662	-0.12528	0.15991	-0.29602	0.0354	-0.040588	0.011292	-0.10376	-1.5984	0.080872	0.20523	0.086212	0.056	0.008545	0.013123	0.14862	0.058594	-0.005341	0.58121	-0.041504	-0.001678	-0.002441
27.943	0.002136	-0.068512	0.001984	0.019684	-0.022583	0.034332	0.62332	-0.023651	0.082092	0.30563	0.000458	-0.017395	0.10864	-0.001678	0.001984	0.10574	-0.018768	-0.027313	-0.75821	0.059509	0.22217	0.097656	0.051727	0.024719	0.005646	0.10178	-0.072479	-0.006866	0.11063	-0.068054	-0.002899	-0.003662
27.944	-0.015106	-0.058441	0.085907	0.017395	-0.024414	0.035248	0.58319	-0.019836	-0.13016	0.44449	-0.002441	0.18326	0.048676	0.34454	-0.024872	0.063019	-0.062256	0.027161	0.77515	-0.061951	0.22018	0.10788	0.063324	0.014801	-0.008545	0.063934	-0.024719	-0.01358	-0.63339	-0.059052	-0.003052	-0.009766
27.945	-0.002747	-0.049286	0.12573	0.050201	0.015869	-0.014648	0.29999	-0.019226	-0.099335	0.30563	-0.001526	0.085754	0.019073	0.23605	-0.043182	0.13229	-0.034485	-0.02533	2.3341	-0.25909	0.13977	0.054474	0.06134	-0.028839	-0.000153	0.030823	0.033569	-0.006866	-0.30121	-0.026703	-0.003204	-0.005646
27.946	0.018463	-0.075836	0.065613	-0.005798	0.036469	-0.019836	0.000916	-0.010223	0.001831	0.13367	0.000916	-0.071716	-0.026093	-0.50232	0.079803	0.042267	-0.000763	-0.20294	1.4786	-0.17609	0.022125	0.016632	0.06897	-0.006714	0.021362	0.004883	0.050964	-0.012817	-0.087891	0.049896	-0.002289	-0.011902
27.947	0.015564	-0.071564	-0.022888	-0.007935	0.025177	-0.010681	0.081024	-0.014038	0.063477	0.12726	-0.009918	-0.032806	-0.040436	-0.93216	0.034637	0.019073	0.003357	-0.22919	0.9549	-0.18753	0.004272	0.033722	0.019684	-0.053864	0.022888	-0.007477	0.036011	-0.010986	-0.49972	0.045776	-0.003967	-0.011292
27.948	0.004272	-0.050354	0.048065	-0.013733	0.011139	-0.00061	0.1532	-0.033264	0.054626	0.11078	-0.007935	0.069275	-0.029755	-0.49698	-0.032349	-0.003052	-0.017395	-0.19363	-0.20859	-0.037384	0.017853	0.046387	-0.023651	-0.014191	0.026855	-0.016022	0.044556	-0.011292	-0.32028	0.006104	-0.001984	-0.002899
27.949	-0.003662	-0.061798	0.038605	-0.012817	0.011749	-0.022888	0.10468	-0.035248	-0.016937	0.079346	0.009155	0.081787	-0.006866	-0.31128	-0.078125	-0.009766	-0.030823	-0.13947	-0.73044	0.13916	0.021667	0.011444	-0.009308	-0.001831	0.027924	-0.017242	0.037689	-0.007782	0.10651	-0.051117	-0.002136	-0.005798
27.95	-0.010681	-0.030365	-0.042114	-0.001526	0.002899	-0.016022	0.233	-0.030365	-0.014801	0.032806	0.00824	0.021057	0.017242	-0.1059	-0.080566	0.01297	-0.003052	-0.090637	-0.95932	0.26215	-0.13596	0.016785	-0.010071	-0.026398	0.016937	-0.018311	0.005188	-0.00824	0.64438	-0.079956	-0.003967	-0.001831
27.951	0.001068	-0.02121	-0.071259	-0.018158	0.003815	0.007477	0.27878	0.011749	-0.010681	0.007019	0.016937	-0.025177	0.038605	-0.060425	-0.051727	0.005493	0.028839	-0.15427	-0.76767	0.2298	-0.24033	-0.038605	0.010071	-0.066376	0.040436	-0.016937	-0.021515	-0.008087	-0.57114	-0.083466	-0.00351	-0.002594
27.952	-0.007935	-0.059052	-0.057983	-0.017548	-0.010223	0.034332	0.21378	0.010834	0.057068	0.001373	0.010223	-0.033569	0.02533	0.023041	-0.023499	-0.019684	0.015564	-0.14969	-0.5191	0.26657	-0.069885	0.002594	-0.007782	-0.059357	0.043488	-0.031738	0.010223	-0.010223	-0.45273	-0.029907	-0.002289	-0.004578
27.953	-0.011139	0.003662	0.007172	0.000916	-0.011902	0.021515	0.20889	0.000153	0.058899	0.004272	0.002136	-0.036316	0.026245	0.007629	-0.014496	-0.027161	-0.010376	-0.14282	-0.41138	0.20752	0.18417	0.090637	-0.048981	-0.006866	0.050964	-0.031738	0.019989	-0.011444	-0.14481	0.015869	-0.002899	-0.011292
27.954	-0.014648	0.006409	0.084991	0.021362	-0.015717	-0.002594	0.20264	0.007019	0.094604	-0.003967	0.003052	-0.023956	0.015411	0.067291	0.004883	-0.027008	0.005035	-0.078583	0.079651	0.094452	0.41641	0.062408	-0.01358	-0.023499	0.047913	-0.031586	0.046692	-0.010529	0.18082	0.003815	0.002136	-0.022583
27.955	0.003662	0.016174	0.079041	0.017853	-0.008545	-0.014343	0.21484	0.025635	0.077515	-0.010376	-0.005493	-0.010223	0.01297	0.091095	0.018768	-0.015106	-0.005493	-0.11719	-0.11108	0.08316	0.13168	0.12192	-0.027466	0.021515	0.061951	-0.027313	0.057831	-0.017395	0.29007	0.007172	0.000763	-0.013885
27.956	0.005188	0.008087	0.054932	-0.005798	0.001221	-0.021057	0.19409	0.015564	0.058899	-0.016937	-0.000763	-0.010223	0.000458	0.12634	0.013733	0.009308	-0.007935	-0.10757	-0.6546	0.070343	0.08728	0.098572	-0.004425	0.035553	0.065765	-0.024414	-0.016327	-0.006561	0.039825	0.012054	-0.001221	-0.012512
27.957	-0.004272	-0.013123	0.035858	-0.007324	0.008087	0.001984	0.2475	0.019684	0.023956	-0.027771	0.026398	-0.013123	-0.001831	-0.091705	0.027161	0.026855	-0.009613	-0.090179	-0.67383	0.03067	0.033722	0.064392	-0.049286	0.076752	0.072174	-0.021057	-0.002441	-0.011139	-0.11765	0.016022	0	-0.013733
27.958	-0.005341	0.011139	0.022278	-0.006561	0.010376	-0.009003	0.23086	0.014191	0.059052	-0.033264	-0.065613	-0.002594	0.02594	0.015106	0.006714	0.010986	-0.02121	-0.090027	-0.40619	-0.033417	0.007019	0.10284	-0.020752	0.097504	0.058289	-0.024109	0.000153	-0.009308	-0.33127	0.036926	0.00061	-0.015259
27.959	0.001526	-0.00473	0.020142	0.009766	0.007629	0.006256	0.15198	0.010071	0.050049	-0.041809	-0.14435	0.001068	0.071564	0.072021	-0.002747	0.011139	-0.016174	-0.11169	-0.45563	-0.093689	0.081635	0.17792	-0.016632	0.052948	0.053406	-0.011444	-0.016327	-0.009003	-0.35919	-0.003815	-0.006104	-0.011749
27.96	-0.000153	0.006256	0.002747	0.003204	0.002136	0.010071	0.16586	-0.003204	0.071106	-0.022888	-0.089874	0.004272	0.037537	0.053253	0.041809	0.000305	-0.06424	-0.065765	-0.54184	-0.076904	0.074615	0.21286	0.011292	-0.010529	0.015869	-0.016632	-0.026398	-0.007019	0.034943	-0.038452	-0.000916	-0.02182
27.961	-0.008392	0.034485	0.000763	0.009155	-0.02533	0.017548	0.19852	0.006714	0.080719	-0.044098	-0.046844	0.001984	0.058746	0.041504	0.072937	-0.004272	-0.060425	-0.049286	0.10727	-0.10559	0.12711	0.1297	-0.020599	0.014496	0.009918	-0.024719	-0.02533	-0.007935	0.2095	-0.067596	0.000458	-0.015106
27.962	-0.083771	0.027161	0.007629	0.014038	-0.035248	0.012512	0.22125	0.008545	0.067139	-0.062256	0.058899	-0.002594	0.062714	0.071106	-0.006714	-0.009766	-0.040588	-0.089569	0.13901	-0.07019	0.19089	0.020752	0.002441	-0.031281	-0.003204	-0.03067	-0.009308	-0.00351	0.27481	-0.007629	-0.003815	-0.016632
27.963	-0.053711	0.014801	-0.014191	0.010223	-0.052643	0.014343	0.21805	0.00061	0.069427	-0.043945	0.18814	-0.00473	-0.025787	0.041351	-0.057831	-0.02243	-0.006561	-0.17578	-0.21072	-0.063629	-0.007782	-0.095062	0.074158	-0.1059	-0.042572	-0.032349	-0.008087	-0.002289	0.18768	0.034485	-0.001984	-0.018463
27.964	-0.023499	0.060272	0.039063	0.012817	-0.082703	-0.028534	0.23483	-0.002594	0.076904	-0.080414	0.13107	-0.008698	-0.086975	0.042267	-0.060272	-0.001526	0.011139	-0.12756	-0.22293	-0.091553	-0.057526	-0.18417	0.071411	-0.087891	-0.035858	-0.033875	0.001068	-0.007782	0.11475	0.052795	-0.00061	-0.01236
27.965	-0.013885	0.045929	0.001984	0.002289	-0.086823	-0.11032	0.27924	0.007019	0.063324	-0.16159	0.034637	-0.001678	-0.061188	0.064087	-0.090485	-0.005951	0.026398	-0.159	-0.065613	-0.16159	-0.053406	-0.22995	0.083466	-0.06546	-0.058594	-0.027924	0.022736	-0.00473	0.059814	0.030365	-0.001831	-0.018768
27.966	0.002441	0.049286	0.001526	0.019531	-0.078278	-0.22034	0.30685	0.005798	0.052795	-0.25406	0.021515	-0.001373	-0.046997	0.079956	0.010986	-0.6192	0.037384	-0.18524	0.30487	-0.16037	-0.001526	-0.23132	0.085907	-0.090485	-0.052032	-0.030823	0.040588	-0.005188	0.010376	0.001068	0.009766	-0.023956
